<svg width="179" height="49" viewBox="0 0 179 49" fill="none" xmlns="http://www.w3.org/2000/svg">
<path d="M10.4595 38.1111C8.36508 38.1111 6.37279 37.7222 4.48266 36.9444C2.61808 36.1407 1.12386 35.1815 0 34.0667L1.87735 26.2889C2.77133 27.8704 4.03567 29.1926 5.67038 30.2556C7.30508 31.2926 8.9781 31.8111 10.6894 31.8111C12.0943 31.8111 13.1926 31.4222 13.9844 30.6444C14.8017 29.8667 15.2104 28.9204 15.2104 27.8056C15.2104 26.8981 14.9933 26.1463 14.5591 25.55C14.1504 24.9537 13.6523 24.4611 13.0649 24.0722C12.5029 23.6833 12.0049 23.3852 11.5706 23.1778L7.50942 21.1167C6.33448 20.5204 5.21062 19.8204 4.13784 19.0167C3.06507 18.187 2.18386 17.163 1.49422 15.9444C0.830123 14.7259 0.498074 13.2222 0.498074 11.4333C0.498074 9.46296 0.932292 7.73889 1.80073 6.26111C2.69471 4.78333 3.94628 3.62963 5.55544 2.8C7.1646 1.97037 9.05472 1.55556 11.2258 1.55556C13.2692 1.55556 15.0827 1.89259 16.6663 2.56667C18.2755 3.21482 19.5781 3.91481 20.5743 4.66667L18.8119 12.25C17.7902 10.9019 16.5641 9.82592 15.1338 9.02222C13.729 8.19259 12.3241 7.77778 10.9193 7.77778C9.66774 7.77778 8.69713 8.10185 8.00749 8.75C7.34339 9.39815 7.01134 10.2019 7.01134 11.1611C7.01134 11.7574 7.13906 12.2889 7.39448 12.7556C7.67544 13.2222 8.07135 13.637 8.58219 14C9.09304 14.363 9.69328 14.7259 10.3829 15.0889L14.4824 17.15C15.1721 17.487 15.9256 17.9278 16.7429 18.4722C17.5603 18.9907 18.3521 19.6519 19.1184 20.4556C19.8846 21.2593 20.5104 22.2315 20.9957 23.3722C21.481 24.487 21.7237 25.8222 21.7237 27.3778C21.7237 29.4 21.2639 31.2278 20.3444 32.8611C19.4249 34.4685 18.1222 35.7519 16.4364 36.7111C14.7762 37.6444 12.7839 38.1111 10.4595 38.1111Z" fill="#9736FF"/>
<path d="M34.6173 38.1111C33.0082 38.1111 31.4884 37.7222 30.058 36.9444C28.6277 36.1407 27.4655 34.987 26.5715 33.4833C25.7031 31.9537 25.2689 30.113 25.2689 27.9611V14H31.9354V27.0667C31.9354 28.363 32.3185 29.5167 33.0848 30.5278C33.8766 31.5389 34.9749 32.0444 36.3797 32.0444C37.5291 32.0444 38.5508 31.6296 39.4448 30.8C40.3643 29.9444 40.8241 28.7259 40.8241 27.1444V14H47.4906V37.3333H41.4371V34.8833C40.6197 35.9204 39.6108 36.7241 38.4103 37.2944C37.2354 37.8389 35.9711 38.1111 34.6173 38.1111Z" fill="#9736FF"/>
<path d="M52.5599 37.3333V14H58.5368V16.5667C59.3542 15.4778 60.3631 14.6481 61.5636 14.0778C62.7641 13.5074 64.0539 13.2222 65.4332 13.2222C67.0679 13.2222 68.5877 13.6241 69.9925 14.4278C71.4229 15.2056 72.5723 16.3593 73.4407 17.8889C74.3347 19.3926 74.7817 21.2204 74.7817 23.3722V37.3333H68.1152V24.2667C68.1152 22.9704 67.732 21.8167 66.9658 20.8056C66.1995 19.7944 65.1012 19.2889 63.6708 19.2889C62.5214 19.2889 61.4869 19.6907 60.5674 20.4944C59.6735 21.2722 59.2265 22.5037 59.2265 24.1889V37.3333H52.5599Z" fill="#9736FF"/>
<path d="M89.7742 37.9556C87.6286 37.9556 85.6874 37.3982 83.9506 36.2833C82.2137 35.1685 80.8216 33.6907 79.7744 31.85C78.7527 29.9833 78.2419 27.9222 78.2419 25.6667C78.2419 23.4111 78.7527 21.35 79.7744 19.4833C80.8216 17.6167 82.2137 16.1389 83.9506 15.05C85.6874 13.9352 87.6286 13.3778 89.7742 13.3778C91.0002 13.3778 92.1368 13.5593 93.1841 13.9222C94.2313 14.2852 95.1764 14.8037 96.0193 15.4778V0H102.686V37.3333H96.9388V35.0389C96.0703 35.9463 95.0231 36.6593 93.7971 37.1778C92.5711 37.6963 91.2301 37.9556 89.7742 37.9556ZM90.5405 32.0056C91.6643 32.0056 92.686 31.7204 93.6055 31.15C94.525 30.5796 95.253 29.8148 95.7894 28.8556C96.3513 27.8963 96.6323 26.8333 96.6323 25.6667C96.6323 24.5 96.3513 23.437 95.7894 22.4778C95.253 21.5185 94.525 20.7537 93.6055 20.1833C92.686 19.613 91.6643 19.3278 90.5405 19.3278C89.4166 19.3278 88.3949 19.613 87.4754 20.1833C86.5559 20.7537 85.8151 21.5185 85.2532 22.4778C84.7168 23.437 84.4486 24.5 84.4486 25.6667C84.4486 26.8333 84.7168 27.8963 85.2532 28.8556C85.8151 29.8148 86.5559 30.5796 87.4754 31.15C88.3949 31.7204 89.4166 32.0056 90.5405 32.0056Z" fill="#9736FF"/>
<path d="M118.076 37.9556C115.956 37.9556 114.027 37.3982 112.29 36.2833C110.554 35.1685 109.162 33.6907 108.114 31.85C107.093 29.9833 106.582 27.9222 106.582 25.6667C106.582 23.4111 107.093 21.35 108.114 19.4833C109.162 17.6167 110.554 16.1389 112.29 15.05C114.027 13.9352 115.956 13.3778 118.076 13.3778C119.557 13.3778 120.911 13.65 122.137 14.1944C123.363 14.713 124.41 15.4389 125.279 16.3722V14H131.026V37.3333H125.279V34.9611C124.41 35.8944 123.363 36.6333 122.137 37.1778C120.911 37.6963 119.557 37.9556 118.076 37.9556ZM118.88 32.0056C120.004 32.0056 121.026 31.7204 121.945 31.15C122.865 30.5796 123.593 29.8148 124.129 28.8556C124.691 27.8963 124.972 26.8333 124.972 25.6667C124.972 24.5 124.691 23.437 124.129 22.4778C123.593 21.5185 122.865 20.7537 121.945 20.1833C121.026 19.613 120.004 19.3278 118.88 19.3278C117.757 19.3278 116.735 19.613 115.815 20.1833C114.896 20.7537 114.155 21.5185 113.593 22.4778C113.057 23.437 112.789 24.5 112.789 25.6667C112.789 26.8333 113.057 27.8963 113.593 28.8556C114.155 29.8148 114.896 30.5796 115.815 31.15C116.735 31.7204 117.757 32.0056 118.88 32.0056Z" fill="#9736FF"/>
<path d="M135.496 49L143.159 33.3667L133.772 14H141.128L145.19 22.5556C145.547 23.3333 145.854 24.0463 146.109 24.6944C146.39 25.3167 146.62 25.9259 146.799 26.5222C147.003 25.9259 147.246 25.3167 147.527 24.6944C147.808 24.0463 148.14 23.3333 148.523 22.5556L152.661 14H159.749L142.661 49H135.496Z" fill="#9736FF"/>
<path d="M170.073 38.1111C168.515 38.1111 166.931 37.8519 165.322 37.3333C163.739 36.8148 162.5 36.1148 161.606 35.2333L163.253 28.8556C163.994 29.8926 165.016 30.8 166.318 31.5778C167.646 32.3556 169.013 32.7444 170.418 32.7444C171.363 32.7444 172.04 32.563 172.448 32.2C172.883 31.837 173.1 31.3963 173.1 30.8778C173.1 30.2815 172.883 29.8537 172.448 29.5944C172.014 29.3093 171.567 29.0759 171.107 28.8944L167.889 27.65C167.174 27.3648 166.357 26.9759 165.437 26.4833C164.518 25.9907 163.713 25.2907 163.023 24.3833C162.359 23.4759 162.027 22.2833 162.027 20.8056C162.027 19.4574 162.359 18.213 163.023 17.0722C163.687 15.9315 164.645 15.0111 165.897 14.3111C167.174 13.5852 168.706 13.2222 170.494 13.2222C172.155 13.2222 173.7 13.5074 175.13 14.0778C176.586 14.6481 177.646 15.2833 178.31 15.9833L176.778 22.1278C175.909 20.987 174.875 20.1185 173.674 19.5222C172.499 18.9 171.376 18.5889 170.303 18.5889C169.486 18.5889 168.885 18.7574 168.502 19.0944C168.119 19.4315 167.927 19.8204 167.927 20.2611C167.927 20.5981 168.055 20.9352 168.311 21.2722C168.592 21.5833 169.051 21.8685 169.69 22.1278L172.678 23.2556C173.547 23.5667 174.466 23.9815 175.437 24.5C176.433 25.0185 177.276 25.7444 177.966 26.6778C178.655 27.5852 179 28.8426 179 30.45C179 32.7056 178.17 34.5463 176.51 35.9722C174.875 37.3982 172.729 38.1111 170.073 38.1111Z" fill="#9736FF"/>
</svg>
