<svg width="319" height="36" viewBox="0 0 319 36" fill="none" xmlns="http://www.w3.org/2000/svg">
<rect width="319" height="36" rx="18" fill="#FDF7FF"/>
<g clip-path="url(#clip0_20262_3811)">
<path d="M22 28C27.5228 28 32 23.5228 32 18C32 12.4772 27.5228 8 22 8C16.4772 8 12 12.4772 12 18C12 23.5228 16.4772 28 22 28Z" stroke="#757575" stroke-width="2.5" stroke-linecap="round" stroke-linejoin="round"/>
<path d="M20 14L26 18L20 22V14Z" stroke="#757575" stroke-width="2.5" stroke-linecap="round" stroke-linejoin="round"/>
</g>
<line x1="44" y1="12.7307" x2="44" y2="23.2693" stroke="#8F8F8F" stroke-width="2" stroke-linecap="round"/>
<line x1="48.8717" y1="12.7307" x2="48.8717" y2="23.2693" stroke="#8F8F8F" stroke-width="2" stroke-linecap="round"/>
<line x1="53.7444" y1="12.7307" x2="53.7444" y2="23.2693" stroke="#8F8F8F" stroke-width="2" stroke-linecap="round"/>
<line x1="58.6182" y1="12.7307" x2="58.6182" y2="23.2693" stroke="#8F8F8F" stroke-width="2" stroke-linecap="round"/>
<line x1="63.4899" y1="12.7307" x2="63.4899" y2="23.2693" stroke="#8F8F8F" stroke-width="2" stroke-linecap="round"/>
<line x1="68.3606" y1="12.7307" x2="68.3606" y2="23.2693" stroke="#8F8F8F" stroke-width="2" stroke-linecap="round"/>
<line x1="73.2333" y1="12.7307" x2="73.2333" y2="23.2693" stroke="#8F8F8F" stroke-width="2" stroke-linecap="round"/>
<line x1="78.1061" y1="12.7307" x2="78.1061" y2="23.2693" stroke="#8F8F8F" stroke-width="2" stroke-linecap="round"/>
<line x1="82.9788" y1="12.7307" x2="82.9788" y2="23.2693" stroke="#8F8F8F" stroke-width="2" stroke-linecap="round"/>
<line x1="87.8505" y1="12.7307" x2="87.8505" y2="23.2693" stroke="#8F8F8F" stroke-width="2" stroke-linecap="round"/>
<line x1="92.7232" y1="12.7307" x2="92.7232" y2="23.2693" stroke="#8F8F8F" stroke-width="2" stroke-linecap="round"/>
<line x1="97.5949" y1="12.7307" x2="97.5949" y2="23.2693" stroke="#8F8F8F" stroke-width="2" stroke-linecap="round"/>
<line x1="102.469" y1="12.7307" x2="102.469" y2="23.2693" stroke="#8F8F8F" stroke-width="2" stroke-linecap="round"/>
<line x1="107.34" y1="12.7307" x2="107.34" y2="23.2693" stroke="#8F8F8F" stroke-width="2" stroke-linecap="round"/>
<line x1="112.213" y1="12.7307" x2="112.213" y2="23.2693" stroke="#8F8F8F" stroke-width="2" stroke-linecap="round"/>
<line x1="117.085" y1="12.7307" x2="117.085" y2="23.2693" stroke="#8F8F8F" stroke-width="2" stroke-linecap="round"/>
<line x1="199.915" y1="12.7307" x2="199.915" y2="23.2693" stroke="#8F8F8F" stroke-width="2" stroke-linecap="round"/>
<line x1="204.787" y1="12.7307" x2="204.787" y2="23.2693" stroke="#8F8F8F" stroke-width="2" stroke-linecap="round"/>
<line x1="209.66" y1="12.7307" x2="209.66" y2="23.2693" stroke="#8F8F8F" stroke-width="2" stroke-linecap="round"/>
<line x1="214.531" y1="12.7307" x2="214.531" y2="23.2693" stroke="#8F8F8F" stroke-width="2" stroke-linecap="round"/>
<line x1="219.405" y1="12.7307" x2="219.405" y2="23.2693" stroke="#8F8F8F" stroke-width="2" stroke-linecap="round"/>
<line x1="224.277" y1="12.7307" x2="224.277" y2="23.2693" stroke="#8F8F8F" stroke-width="2" stroke-linecap="round"/>
<line x1="229.15" y1="12.7307" x2="229.15" y2="23.2693" stroke="#8F8F8F" stroke-width="2" stroke-linecap="round"/>
<line x1="234.021" y1="12.7307" x2="234.021" y2="23.2693" stroke="#8F8F8F" stroke-width="2" stroke-linecap="round"/>
<line x1="238.894" y1="12.7307" x2="238.894" y2="23.2693" stroke="#8F8F8F" stroke-width="2" stroke-linecap="round"/>
<line x1="243.767" y1="12.7307" x2="243.767" y2="23.2693" stroke="#8F8F8F" stroke-width="2" stroke-linecap="round"/>
<line x1="248.639" y1="12.7307" x2="248.639" y2="23.2693" stroke="#8F8F8F" stroke-width="2" stroke-linecap="round"/>
<line x1="253.51" y1="12.7307" x2="253.51" y2="23.2693" stroke="#8F8F8F" stroke-width="2" stroke-linecap="round"/>
<line x1="258.384" y1="12.7307" x2="258.384" y2="23.2693" stroke="#8F8F8F" stroke-width="2" stroke-linecap="round"/>
<line x1="263.256" y1="12.7307" x2="263.256" y2="23.2693" stroke="#8F8F8F" stroke-width="2" stroke-linecap="round"/>
<line x1="268.128" y1="12.7307" x2="268.128" y2="23.2693" stroke="#8F8F8F" stroke-width="2" stroke-linecap="round"/>
<line x1="273" y1="12.7307" x2="273" y2="23.2693" stroke="#8F8F8F" stroke-width="2" stroke-linecap="round"/>
<line x1="121.958" y1="12.7307" x2="121.958" y2="23.2693" stroke="#8F8F8F" stroke-width="2" stroke-linecap="round"/>
<line x1="126.829" y1="12.7307" x2="126.829" y2="23.2693" stroke="#8F8F8F" stroke-width="2" stroke-linecap="round"/>
<line x1="131.702" y1="12.7307" x2="131.702" y2="23.2693" stroke="#8F8F8F" stroke-width="2" stroke-linecap="round"/>
<line x1="136.574" y1="12.7307" x2="136.574" y2="23.2693" stroke="#8F8F8F" stroke-width="2" stroke-linecap="round"/>
<line x1="141.446" y1="12.7307" x2="141.446" y2="23.2693" stroke="#8F8F8F" stroke-width="2" stroke-linecap="round"/>
<line x1="146.319" y1="12.7307" x2="146.319" y2="23.2693" stroke="#8F8F8F" stroke-width="2" stroke-linecap="round"/>
<line x1="151.192" y1="12.7307" x2="151.192" y2="23.2693" stroke="#8F8F8F" stroke-width="2" stroke-linecap="round"/>
<line x1="156.064" y1="12.7307" x2="156.064" y2="23.2693" stroke="#8F8F8F" stroke-width="2" stroke-linecap="round"/>
<line x1="160.936" y1="12.7307" x2="160.936" y2="23.2693" stroke="#8F8F8F" stroke-width="2" stroke-linecap="round"/>
<line x1="165.808" y1="12.7307" x2="165.808" y2="23.2693" stroke="#8F8F8F" stroke-width="2" stroke-linecap="round"/>
<line x1="170.681" y1="12.7307" x2="170.681" y2="23.2693" stroke="#8F8F8F" stroke-width="2" stroke-linecap="round"/>
<line x1="175.554" y1="12.7307" x2="175.554" y2="23.2693" stroke="#8F8F8F" stroke-width="2" stroke-linecap="round"/>
<line x1="180.426" y1="12.7307" x2="180.426" y2="23.2693" stroke="#8F8F8F" stroke-width="2" stroke-linecap="round"/>
<line x1="185.298" y1="12.7307" x2="185.298" y2="23.2693" stroke="#8F8F8F" stroke-width="2" stroke-linecap="round"/>
<line x1="190.171" y1="12.7307" x2="190.171" y2="23.2693" stroke="#8F8F8F" stroke-width="2" stroke-linecap="round"/>
<line x1="195.042" y1="12.7307" x2="195.042" y2="23.2693" stroke="#8F8F8F" stroke-width="2" stroke-linecap="round"/>
<path d="M285.246 22.656C284.232 22.656 283.461 22.2443 282.932 21.421C282.403 20.589 282.139 19.4277 282.139 17.937C282.139 16.4377 282.408 15.2807 282.945 14.466C283.491 13.6513 284.267 13.244 285.272 13.244C286.286 13.244 287.057 13.6557 287.586 14.479C288.115 15.3023 288.379 16.4637 288.379 17.963C288.379 19.4623 288.106 20.6193 287.56 21.434C287.023 22.2487 286.251 22.656 285.246 22.656ZM285.259 21.59C285.649 21.59 285.983 21.4773 286.26 21.252C286.546 21.018 286.763 20.6367 286.91 20.108C287.066 19.5793 287.144 18.8687 287.144 17.976C287.144 16.78 286.975 15.87 286.637 15.246C286.308 14.622 285.848 14.31 285.259 14.31C284.869 14.31 284.531 14.427 284.245 14.661C283.968 14.8863 283.751 15.2633 283.595 15.792C283.448 16.312 283.374 17.0227 283.374 17.924C283.374 19.12 283.539 20.03 283.868 20.654C284.206 21.278 284.67 21.59 285.259 21.59ZM291.104 17.326C290.87 17.326 290.666 17.2393 290.493 17.066C290.319 16.8927 290.233 16.689 290.233 16.455C290.233 16.1863 290.311 15.974 290.467 15.818C290.623 15.662 290.835 15.584 291.104 15.584C291.329 15.584 291.528 15.6707 291.702 15.844C291.884 16.0173 291.975 16.221 291.975 16.455C291.975 16.715 291.892 16.9273 291.728 17.092C291.563 17.248 291.355 17.326 291.104 17.326ZM291.104 22.656C290.87 22.656 290.666 22.5693 290.493 22.396C290.319 22.2227 290.233 22.019 290.233 21.785C290.233 21.5163 290.311 21.304 290.467 21.148C290.623 20.992 290.835 20.914 291.104 20.914C291.329 20.914 291.528 21.0007 291.702 21.174C291.884 21.3473 291.975 21.551 291.975 21.785C291.975 22.045 291.892 22.2573 291.728 22.422C291.563 22.578 291.355 22.656 291.104 22.656ZM294.923 22.5V21.46H296.782V14.895L295.04 16.208L294.403 15.337L297.094 13.4H297.952V21.46H299.499V22.5H294.923ZM301.99 22.5C301.964 22.344 301.951 22.1837 301.951 22.019C301.951 21.4557 302.047 20.953 302.237 20.511C302.437 20.0603 302.692 19.653 303.004 19.289C303.316 18.9163 303.646 18.574 303.992 18.262C304.348 17.9413 304.677 17.638 304.98 17.352C305.292 17.0573 305.548 16.7627 305.747 16.468C305.947 16.1733 306.046 15.8657 306.046 15.545C306.046 15.181 305.912 14.882 305.643 14.648C305.375 14.4053 305.028 14.284 304.603 14.284C304.239 14.284 303.906 14.3577 303.602 14.505C303.308 14.6437 303.03 14.8343 302.77 15.077L302.12 14.284C302.467 13.972 302.848 13.7207 303.264 13.53C303.689 13.3393 304.179 13.244 304.733 13.244C305.245 13.244 305.691 13.3437 306.072 13.543C306.454 13.7337 306.748 13.998 306.956 14.336C307.173 14.674 307.281 15.051 307.281 15.467C307.281 15.883 307.19 16.2687 307.008 16.624C306.826 16.9793 306.592 17.313 306.306 17.625C306.02 17.937 305.713 18.2403 305.383 18.535C305.054 18.821 304.738 19.1157 304.434 19.419C304.131 19.7223 303.871 20.0387 303.654 20.368C303.446 20.6973 303.316 21.0527 303.264 21.434H307.268V22.5H301.99Z" fill="#1E1E1E"/>
<defs>
<clipPath id="clip0_20262_3811">
<rect width="24" height="24" fill="white" transform="translate(10 6)"/>
</clipPath>
</defs>
</svg>
